<svg width="1083.93740234375px" height="178.4px" xmlns="http://www.w3.org/2000/svg" viewBox="-291.96870117187495 -14.200000000000003 1083.93740234375 178.4" style="background: none;" preserveAspectRatio="xMidYMid"><defs>
  <filter id="editing-scratch" x="-100%" y="-100%" width="300%" height="300%">
    <!-- COLOR -->
    <feFlood flood-color="#f3f3f3" flood-opacity="0.75" result="COLOR-blu"></feFlood>
    <feFlood flood-color="#013770" flood-opacity="0.4" result="COLOR-red"></feFlood>
    <!-- COLOR END -->

    <!-- Texture -->
    <feTurbulence baseFrequency=".05" type="fractalNoise" numOctaves="3" seed="0" result="Texture_10"></feTurbulence>
    <feColorMatrix type="matrix" values="0 0 0 0 0,
    0 0 0 0 0,
    0 0 0 0 0,
    0 0 0 -2.1 1.1" in="Texture_10" result="Texture_20"></feColorMatrix>

    <feColorMatrix result="Texture_30" type="matrix" values="0 0 0 0 0,
    0 0 0 0 0,
    0 0 0 0 0,
    0 0 0 -1.7 1.8" in="Texture_10"></feColorMatrix>
    <!-- Texture -->

    <!-- FILL -->
    <feOffset dx="-3" dy="4" in="SourceAlpha" result="FILL_10"></feOffset>
    <feDisplacementMap scale="17" in="FILL_10" in2="Texture_10" result="FILL_20"></feDisplacementMap>
    <feComposite operator="in" in="Texture_30" in2="FILL_20" result="FILL_40"></feComposite>
    <feComposite operator="in" in="COLOR-blu" in2="FILL_40" result="FILL_50"></feComposite>
    <!-- FILL END-->

    <!-- OUTLINE -->
    <feMorphology operator="dilate" radius="3" in="SourceGraphic" result="OUTLINE_10"></feMorphology>
    <feComposite operator="out" in="OUTLINE_10" in2="SourceGraphic" result="OUTLINE_20"></feComposite>
    <feDisplacementMap scale="7" in="OUTLINE_20" in2="Texture_10" result="OUTLINE_30"></feDisplacementMap>
    <feComposite operator="arithmetic" k2="-1" k3="1" in="Texture_20" in2="OUTLINE_30" result="OUTLINE_40"></feComposite>
    <!-- OUTLINE END-->

    <!-- BEVEL OUTLINE -->
    <feConvolveMatrix order="8,8" divisor="1" kernelMatrix="1 0 0 0 0 0 0 0 0 1 0 0 0 0 0 0 0 0 1 0 0 0 0 0 0 0 0 1 0 0 0 0 0 0 0 0 1 0 0 0 0 0 0 0 0 1 0 0 0 0 0 0 0 0 1 0 0 0 0 0 0 0 0 1 " in="SourceGraphic" result="BEVEL_10"></feConvolveMatrix>
    <feMorphology operator="dilate" radius="2" in="BEVEL_10" result="BEVEL_20"></feMorphology>
    <feComposite operator="out" in="BEVEL_20" in2="BEVEL_10" result="BEVEL_30"></feComposite>
    <feDisplacementMap scale="7" in="BEVEL_30" in2="Texture_10" result="BEVEL_40"></feDisplacementMap>
    <feComposite operator="arithmetic" k2="-1" k3="1" in="Texture_20" in2="BEVEL_40" result="BEVEL_50"></feComposite>
    <feOffset dx="-7" dy="-7" in="BEVEL_50" result="BEVEL_60"></feOffset>
    <feComposite operator="out" in="BEVEL_60" in2="OUTLINE_10" result="BEVEL_70"></feComposite>
    <!-- BEVEL OUTLINE END -->

    <!-- BEVEL FILL -->
    <feOffset dx="-9" dy="-9" in="BEVEL_10" result="BEVEL-FILL_10"></feOffset>
    <feComposite operator="out" in="BEVEL-FILL_10" in2="OUTLINE_10" result="BEVEL-FILL_20"></feComposite>
    <feDisplacementMap scale="17" in="BEVEL-FILL_20" in2="Texture_10" result="BEVEL-FILL_30"></feDisplacementMap>
    <feComposite operator="in" in="COLOR-red" in2="BEVEL-FILL_30" result="BEVEL-FILL_50"></feComposite> <!-- -->
    <!-- BEVEL FILL END-->

    <feMerge result="merge2">
     <feMergeNode in="BEVEL-FILL_50"></feMergeNode>
     <feMergeNode in="BEVEL_70"></feMergeNode>
     <feMergeNode in="FILL_50"></feMergeNode>
      <feMergeNode in="OUTLINE_40"></feMergeNode>
    </feMerge>
  </filter>
</defs>
<g filter="url(#editing-scratch)"><g transform="translate(-141.80002117156982, 110.04999542236328)"><path d="M4.20-62L4.20-62L4.20-62Q5.60-64.80 8.65-66.35L8.65-66.35L8.65-66.35Q11.70-67.90 15.90-67.90L15.90-67.90L15.90-67.90Q22.50-67.90 26.45-63.15L26.45-63.15L26.45-63.15Q30.40-58.40 30.40-48L30.40-48L30.40-12.30L53.30-65.90L65.10-65.90L67.80-15.30L67.50-12.40L91.30-65.90L105-65.90L73 0L51.70 0L49.70-30.40L36.50 0L12.40 0L9.40-48L9.40-48Q9.10-53.40 7.65-56.95L7.65-56.95L7.65-56.95Q6.20-60.50 4.20-62ZM143.40-15.40L143.40-15.40L143.40-15.40Q145.30-13 145.30-9.10L145.30-9.10L145.30-9.10Q145.30-3.70 141.30-0.85L141.30-0.85L141.30-0.85Q137.30 2 131 2L131 2L131 2Q127.40 2 121.90 1.20L121.90 1.20L121.90 1.20Q111.10-0.50 107.80-0.50L107.80-0.50L107.80-0.50Q104.50-0.50 103.20-0.35L103.20-0.35L103.20-0.35Q101.90-0.20 99.80 0L99.80 0L112.10-66L155.20-66L155.20-66Q155.20-59.90 152.25-56.70L152.25-56.70L152.25-56.70Q149.30-53.50 143.50-53.50L143.50-53.50L143.50-53.50Q137.70-53.50 131.80-56.20L131.80-56.20L128.70-38.70L146.50-38.70L146.50-38.70Q146.50-33.40 143.90-30.45L143.90-30.45L143.90-30.45Q141.30-27.50 136.95-27.50L136.95-27.50L136.95-27.50Q132.60-27.50 129.90-28.50L129.90-28.50L129.90-28.50Q127.20-29.50 126.90-29.80L126.90-29.80L123.30-10.90L123.30-10.90Q125.70-10.60 130.20-10.60L130.20-10.60L130.20-10.60Q137.90-10.60 143.40-15.40ZM153.50-0.50L153.50-0.50L166.10-66L166.10-66Q177.90-67 185.50-67L185.50-67L185.50-67Q193.10-67 198-66.35L198-66.35L198-66.35Q202.90-65.70 206.20-64L206.20-64L206.20-64Q212.80-60.80 212.80-52L212.80-52L212.80-52Q212.80-46.90 208.40-42.60L208.40-42.60L208.40-42.60Q204.30-38.70 199.80-37.80L199.80-37.80L199.80-37.80Q204.60-37 208-33.40L208-33.40L208-33.40Q211.60-29.60 211.60-23.70L211.60-23.70L211.60-23.70Q211.60-12.30 203.10-5.65L203.10-5.65L203.10-5.65Q194.60 1 177.90 1L177.90 1L177.90 1Q166.40 1 153.50-0.50ZM180.70-32.20L175.70-6.30L175.70-6.30Q176.60-6.20 176.80-6.20L176.80-6.20L177.70-6.20L177.70-6.20Q185.90-6.20 189.40-11.60L189.40-11.60L189.40-11.60Q192-15.80 192-23.50L192-23.50L192-23.50Q192-27.60 189.35-29.80L189.35-29.80L189.35-29.80Q186.70-32 180.70-32.20L180.70-32.20ZM195.90-51.90L195.90-51.90L195.90-51.90Q195.90-60.20 187.90-60.20L187.90-60.20L187-60.20L187-60.20Q186.60-60.20 186-60.10L186-60.10L182-39L183-39L183-39Q195.90-39.30 195.90-51.90ZM303.70-41.50L303.70-41.50L303.70-41.50Q303.70 1.10 257.50 1.10L257.50 1.10L257.50 1.10Q250.10 1.10 237.90-0.70L237.90-0.70L249.10-59.80L249.10-59.80Q249.90-63.80 250.40-66.10L250.40-66.10L250.40-66.10Q265.60-67.20 272.35-67.20L272.35-67.20L272.35-67.20Q279.10-67.20 285.30-65.80L285.30-65.80L285.30-65.80Q291.50-64.40 295.60-61.30L295.60-61.30L295.60-61.30Q303.70-55.20 303.70-41.50ZM283.10-45.20L283.10-45.20L283.10-45.20Q283.10-60.10 272.40-60.10L272.40-60.10L271.40-60.10L271.40-60.10Q270.90-60.10 270.40-60L270.40-60L260.10-6.30L260.10-6.30Q260.50-6.10 260.90-6.10L260.90-6.10L261.70-6.10L261.70-6.10Q265.40-6.10 269.25-8.40L269.25-8.40L269.25-8.40Q273.10-10.70 276.10-15.40L276.10-15.40L276.10-15.40Q283.10-26.30 283.10-45.20ZM351.50-15.40L351.50-15.40L351.50-15.40Q353.40-13 353.40-9.10L353.40-9.10L353.40-9.10Q353.40-3.70 349.40-0.85L349.40-0.85L349.40-0.85Q345.40 2 339.10 2L339.10 2L339.10 2Q335.50 2 330 1.20L330 1.20L330 1.20Q319.20-0.50 315.90-0.50L315.90-0.50L315.90-0.50Q312.60-0.50 311.30-0.35L311.30-0.35L311.30-0.35Q310-0.20 307.90 0L307.90 0L320.20-66L363.30-66L363.30-66Q363.30-59.90 360.35-56.70L360.35-56.70L360.35-56.70Q357.40-53.50 351.60-53.50L351.60-53.50L351.60-53.50Q345.80-53.50 339.90-56.20L339.90-56.20L336.80-38.70L354.60-38.70L354.60-38.70Q354.60-33.40 352-30.45L352-30.45L352-30.45Q349.40-27.50 345.05-27.50L345.05-27.50L345.05-27.50Q340.70-27.50 338-28.50L338-28.50L338-28.50Q335.30-29.50 335-29.80L335-29.80L331.40-10.90L331.40-10.90Q333.80-10.60 338.30-10.60L338.30-10.60L338.30-10.60Q346-10.60 351.50-15.40ZM365.10-62L365.10-62L365.10-62Q368.00-68 376.05-68L376.05-68L376.05-68Q384.10-68 387.85-63.35L387.85-63.35L387.85-63.35Q391.60-58.70 391.60-48L391.60-48L391.60-12.30L415.90-65.90L427.80-65.90L396.70 0L373.30 0L370.30-48L370.30-48Q370.00-53.30 368.55-56.90L368.55-56.90L368.55-56.90Q367.10-60.50 365.10-62ZM466.50-15.40L466.50-15.40L466.50-15.40Q468.40-13 468.40-9.10L468.40-9.10L468.40-9.10Q468.40-3.70 464.40-0.85L464.40-0.85L464.40-0.85Q460.40 2 454.10 2L454.10 2L454.10 2Q450.50 2 445 1.20L445 1.20L445 1.20Q434.20-0.50 430.90-0.50L430.90-0.50L430.90-0.50Q427.60-0.50 426.30-0.35L426.30-0.35L426.30-0.35Q425-0.20 422.90 0L422.90 0L435.20-66L478.30-66L478.30-66Q478.30-59.90 475.35-56.70L475.35-56.70L475.35-56.70Q472.40-53.50 466.60-53.50L466.60-53.50L466.60-53.50Q460.80-53.50 454.90-56.20L454.90-56.20L451.80-38.70L469.60-38.70L469.60-38.70Q469.60-33.40 467-30.45L467-30.45L467-30.45Q464.40-27.50 460.05-27.50L460.05-27.50L460.05-27.50Q455.70-27.50 453-28.50L453-28.50L453-28.50Q450.30-29.50 450-29.80L450-29.80L446.40-10.90L446.40-10.90Q448.80-10.60 453.30-10.60L453.30-10.60L453.30-10.60Q461-10.60 466.50-15.40ZM519.40-15.40L519.40-15.40L519.40-15.40Q521.30-13 521.30-8.35L521.30-8.35L521.30-8.35Q521.30-3.70 517.75-0.85L517.75-0.85L517.75-0.85Q514.20 2 508.00 2L508.00 2L508.00 2Q504.40 2 498.80 1.20L498.80 1.20L498.80 1.20Q487.80-0.50 484.65-0.50L484.65-0.50L484.65-0.50Q481.50-0.50 480.20-0.35L480.20-0.35L480.20-0.35Q478.90-0.20 476.80 0L476.80 0L488.90-66L510.80-66L500.80-11L500.80-11Q502.10-10.80 503.30-10.80L503.30-10.80L505.80-10.80L505.80-10.80Q514.20-10.80 519.40-15.40ZM528.50-24.40L528.50-24.40L528.50-24.40Q528.50-43.30 538.30-55.20L538.30-55.20L538.30-55.20Q548.70-68.10 566.80-68.10L566.80-68.10L566.80-68.10Q579.90-68.10 586.50-61.75L586.50-61.75L586.50-61.75Q593.10-55.40 593.10-42L593.10-42L593.10-42Q593.10-21.60 582.70-9.70L582.70-9.70L582.70-9.70Q572.40 2 555.10 2L555.10 2L555.10 2Q541.60 2 535.05-4.75L535.05-4.75L535.05-4.75Q528.50-11.50 528.50-24.40ZM554.80-45.10L554.80-45.10L554.80-45.10Q550.30-27.10 550.30-12.90L550.30-12.90L550.30-12.90Q550.30-9.50 551.45-7.30L551.45-7.30L551.45-7.30Q552.60-5.10 555.65-5.10L555.65-5.10L555.65-5.10Q558.70-5.10 560.60-6.55L560.60-6.55L560.60-6.55Q562.50-8 564.00-11.30L564.00-11.30L564.00-11.30Q566.40-16.70 568.65-28.15L568.65-28.15L568.65-28.15Q570.90-39.60 571.10-44.35L571.10-44.35L571.10-44.35Q571.30-49.10 571.30-52.70L571.30-52.70L571.30-52.70Q571.30-56.30 570.20-58.60L570.20-58.60L570.20-58.60Q569.10-60.90 566.15-60.90L566.15-60.90L566.15-60.90Q563.20-60.90 561.20-59.10L561.20-59.10L561.20-59.10Q557.50-55.70 554.80-45.10ZM637.10-66.70L637.10-66.70L637.10-66.70Q661.60-66.70 661.60-49.40L661.60-49.40L661.60-49.40Q661.60-39.90 655.50-34.20L655.50-34.20L655.50-34.20Q649.50-28.50 639.00-28.50L639.00-28.50L639.00-28.50Q634.10-28.50 630.30-31.30L630.30-31.30L630.30-31.30Q628.50-32.50 627.30-34.10L627.30-34.10L627.30-34.10Q634.60-34.10 638.45-38.55L638.45-38.55L638.45-38.55Q642.30-43 642.30-51.70L642.30-51.70L642.30-51.70Q642.30-60.40 633.70-60.40L633.70-60.40L631.30-60.40L631.30-60.40Q630.70-60.40 630.20-60.30L630.20-60.30L618.70 0L597.00 0L609.30-65.50L609.30-65.50Q620.00-66.50 626.20-66.60L626.20-66.60L626.20-66.60Q632.40-66.70 637.10-66.70ZM704.80-15.40L704.80-15.40L704.80-15.40Q706.70-13 706.70-9.10L706.70-9.10L706.70-9.10Q706.70-3.70 702.70-0.85L702.70-0.85L702.70-0.85Q698.70 2 692.40 2L692.40 2L692.40 2Q688.80 2 683.30 1.20L683.30 1.20L683.30 1.20Q672.50-0.50 669.20-0.50L669.20-0.50L669.20-0.50Q665.90-0.50 664.60-0.35L664.60-0.35L664.60-0.35Q663.30-0.20 661.20 0L661.20 0L673.50-66L716.60-66L716.60-66Q716.60-59.90 713.65-56.70L713.65-56.70L713.65-56.70Q710.70-53.50 704.90-53.50L704.90-53.50L704.90-53.50Q699.10-53.50 693.20-56.20L693.20-56.20L690.10-38.70L707.90-38.70L707.90-38.70Q707.90-33.40 705.30-30.45L705.30-30.45L705.30-30.45Q702.70-27.50 698.35-27.50L698.35-27.50L698.35-27.50Q694.00-27.50 691.30-28.50L691.30-28.50L691.30-28.50Q688.60-29.50 688.30-29.80L688.30-29.80L684.70-10.90L684.70-10.90Q687.10-10.60 691.60-10.60L691.60-10.60L691.60-10.60Q699.30-10.60 704.80-15.40ZM736.40 0L715 0L727.20-65.70L727.20-65.70Q737.10-66.80 751.55-66.80L751.55-66.80L751.55-66.80Q766-66.80 772.70-62.60L772.70-62.60L772.70-62.60Q779.40-58.40 779.40-49.95L779.40-49.95L779.40-49.95Q779.40-41.50 775.05-36.20L775.05-36.20L775.05-36.20Q770.70-30.90 763.20-29.20L763.20-29.20L763.20-29.20Q764.90-20.90 768.80-14.20L768.80-14.20L768.80-14.20Q772.40-7.90 776.60-5.90L776.60-5.90L776.60-5.90Q775.10-1.70 772.05 0.15L772.05 0.15L772.05 0.15Q769 2 764.65 2L764.65 2L764.65 2Q760.30 2 756.90-0.55L756.90-0.55L756.90-0.55Q753.50-3.10 750.80-7.80L750.80-7.80L750.80-7.80Q745.10-18 744.50-34.10L744.50-34.10L745.20-34.10L745.20-34.10Q752.60-34.30 756.30-38.15L756.30-38.15L756.30-38.15Q760-42 760-50.10L760-50.10L760-50.10Q760-60.20 751.50-60.60L751.50-60.60L749.30-60.60L749.30-60.60Q748.40-60.60 747.90-60.50L747.90-60.50L736.40 0Z" fill="#000000"></path></g></g><style>text {
  font-size: 64px;
  font-family: Arial Black;
  dominant-baseline: central;
  text-anchor: middle;
}</style></svg>